<svg xmlns="http://www.w3.org/2000/svg" viewBox="0 0 627.36 498.37"><defs><style>.cls-1{fill:#fff;}.cls-1,.cls-2,.cls-4{stroke:#1d1d1b;stroke-miterlimit:10;}.cls-2,.cls-5{fill:#333d51;}.cls-3,.cls-4{fill:#d5ac29;}</style></defs><g id="Layer_2" data-name="Layer 2"><g id="Layer_1-2" data-name="Layer 1"><rect class="cls-1" x="17.61" y="0.5" width="331.58" height="331.58" rx="45.39"/><rect class="cls-2" x="0.5" y="0.5" width="331.58" height="331.58" rx="45.39"/><path class="cls-3" d="M226,167c-1.12-21-2.46-46.21-2.24-65h-.67c-5.13,17.63-11.38,36.39-19,57.15l-26.57,73H162.83L138.5,160.5c-7.15-21.21-13.17-40.63-17.41-58.49h-.45c-.45,18.75-1.56,44-2.9,66.52l-4,64.52H95.19L105.68,82.59h24.78l25.67,72.77c6.25,18.53,11.39,35,15.18,50.68H172c3.8-15.18,9.16-31.7,15.85-50.68l26.79-72.77H239.4l9.38,150.46h-19Z"/><rect class="cls-1" x="295.28" y="166.29" width="331.58" height="331.58" rx="45.39"/><rect class="cls-4" x="278.18" y="166.29" width="331.58" height="331.58" rx="45.39"/><path class="cls-5" d="M503.68,332.76c-1.11-21-2.45-46.21-2.23-65h-.67c-5.13,17.63-11.38,36.39-19,57.15l-26.57,73H440.51l-24.34-71.66C409,305.08,403,285.66,398.76,267.8h-.44c-.45,18.75-1.57,44-2.91,66.52l-4,64.52H372.87l10.49-150.46h24.78l25.67,72.77c6.25,18.53,11.38,35.05,15.18,50.68h.67c3.79-15.18,9.15-31.7,15.85-50.68l26.79-72.77h24.78l9.37,150.46h-19Z"/><path class="cls-5" d="M547.3,470.72v-4.54l5.8-5.63c14-13.28,20.26-20.35,20.35-28.59,0-5.55-2.69-10.67-10.85-10.67-5,0-9.08,2.52-11.6,4.62l-2.35-5.21a23.94,23.94,0,0,1,15.47-5.55c11.77,0,16.73,8.07,16.73,15.89,0,10.09-7.32,18.24-18.84,29.34l-4.37,4v.16h24.55v6.14Z"/></g></g></svg>